<?xml version="1.0" standalone="no"?>
<!DOCTYPE svg PUBLIC "-//W3C//DTD SVG 20010904//EN"
 "http://www.w3.org/TR/2001/REC-SVG-20010904/DTD/svg10.dtd">
<svg version="1.0" xmlns="http://www.w3.org/2000/svg"
 width="123.000000pt" height="123.000000pt" viewBox="0 0 123.000000 123.000000"
 preserveAspectRatio="xMidYMid meet">
<metadata>
Created by potrace 1.14, written by Peter Selinger 2001-2017
</metadata>
<g transform="translate(0.000000,123.000000) scale(0.100000,-0.100000)"
fill="#000000" stroke="none">
<path d="M480 959 c-74 -43 -145 -84 -158 -92 -22 -13 -18 -17 120 -107 79
-52 217 -142 307 -202 89 -59 166 -108 170 -108 5 0 8 17 8 38 l0 39 -179 118
c-178 117 -179 119 -157 136 24 18 27 16 254 -126 39 -25 73 -45 76 -45 3 0 6
17 7 39 l2 38 -156 97 -155 97 -59 -36 c-62 -38 -79 -38 -110 -1 -9 12 -10 16
0 16 6 0 24 8 38 19 15 10 52 32 83 49 49 27 59 29 69 17 7 -8 16 -15 20 -15
5 0 63 -34 130 -75 67 -41 126 -75 131 -75 6 0 9 17 8 39 -3 38 -5 40 -116
107 -146 89 -187 112 -193 112 -3 0 -66 -35 -140 -79z"/>
<path d="M292 759 l3 -43 179 -119 180 -119 -28 -15 c-27 -14 -31 -12 -159 68
-73 45 -142 88 -154 96 -22 13 -23 13 -23 -29 l0 -43 149 -92 c82 -51 155 -93
161 -93 7 0 35 13 62 30 57 35 55 35 91 11 l29 -19 -90 -51 c-49 -28 -92 -51
-95 -51 -10 0 -132 74 -135 82 -2 5 -8 8 -13 8 -5 0 -42 20 -81 45 l-73 45 -3
-36 c-2 -22 2 -42 10 -49 7 -7 76 -50 153 -97 l140 -85 155 88 c85 49 156 92
158 97 2 6 -25 28 -60 49 -35 22 -169 110 -298 195 -129 85 -241 158 -248 162
-10 6 -13 -2 -10 -35z"/>
</g>
</svg>
