<svg xmlns="http://www.w3.org/2000/svg" width="22.333" height="22.333">
    <g style="opacity:.7">
        <path data-name="패스 6020" d="M0 0h22.333v22.333H0z" style="fill:none"/>
        <path data-name="패스 6021" d="m20.472 5.323-4.28-3.592-1.2 1.424 4.281 3.592zM7.333 3.155 6.142 1.731 1.861 5.314l1.2 1.423 4.272-3.582zm3.834.568a8.375 8.375 0 1 0 8.375 8.375 8.376 8.376 0 0 0-8.375-8.376zm0 14.889a6.514 6.514 0 1 1 6.514-6.514 6.509 6.509 0 0 1-6.514 6.513zm-1.359-5.091-1.982-1.982-.986.986 2.959 2.959 5.583-5.583-.986-.986-4.588 4.606z"/>
    </g>
</svg>
