<svg xmlns="http://www.w3.org/2000/svg" width="24" height="24">
    <g data-name="menu_book_black_24dp (1)" style="opacity:.65">
        <g data-name="그룹 10659">
            <path data-name="사각형 17577" style="fill:none" d="M0 0h24v24H0z"/>
        </g>
        <g data-name="그룹 10662">
            <g data-name="그룹 10661">
                <path data-name="패스 6032" d="M21 5a11.8 11.8 0 0 0-3.5-.5A9.3 9.3 0 0 0 12 6a9.3 9.3 0 0 0-5.5-1.5A9.3 9.3 0 0 0 1 6v14.65a.538.538 0 0 0 .5.5c.1 0 .15-.05.25-.05A12.205 12.205 0 0 1 6.5 20a9.3 9.3 0 0 1 5.5 1.5 12.045 12.045 0 0 1 5.5-1.5 10.178 10.178 0 0 1 4.75 1.05.451.451 0 0 0 .25.05.538.538 0 0 0 .5-.5V6a6.821 6.821 0 0 0-2-1zm0 13.5a11.62 11.62 0 0 0-3.5-.5 12.045 12.045 0 0 0-5.5 1.5V8a12.045 12.045 0 0 1 5.5-1.5A11.62 11.62 0 0 1 21 7z"/>
                <g data-name="그룹 10660">
                    <path data-name="패스 6033" d="M17.5 10.5a11.694 11.694 0 0 1 2.5.26V9.24A13.5 13.5 0 0 0 17.5 9a11.507 11.507 0 0 0-4.5.83v1.66a9.283 9.283 0 0 1 4.5-.99z"/>
                    <path data-name="패스 6034" d="M13 12.49v1.66a9.283 9.283 0 0 1 4.5-.99 11.694 11.694 0 0 1 2.5.26V11.9a13.5 13.5 0 0 0-2.5-.24 11.691 11.691 0 0 0-4.5.83z"/>
                    <path data-name="패스 6035" d="M17.5 14.33a11.507 11.507 0 0 0-4.5.83v1.66a9.283 9.283 0 0 1 4.5-.99 11.694 11.694 0 0 1 2.5.26v-1.52a12.7 12.7 0 0 0-2.5-.24z"/>
                </g>
            </g>
        </g>
    </g>
</svg>
