<svg xmlns="http://www.w3.org/2000/svg" width="17.928" height="17.926">
    <path data-name="패스 24" d="M16.767 1.188a3.954 3.954 0 0 0-5.6 0L.911 11.445a.513.513 0 0 0-.145.294l-.76 5.63a.512.512 0 0 0 .144.431.522.522 0 0 0 .363.153.415.415 0 0 0 .069 0l3.392-.458a.516.516 0 0 0-.138-1.024l-2.72.367.531-3.927 4.133 4.133a.522.522 0 0 0 .363.153.506.506 0 0 0 .363-.153l10.261-10.26a3.952 3.952 0 0 0 0-5.6zm-5.4 1.261 1.723 1.723-9.36 9.362-1.723-1.723zm-5.222 13.5-1.682-1.685L13.825 4.9l1.685 1.686zm10.081-10.1-4.119-4.122a2.928 2.928 0 0 1 4.122 4.122z" transform="translate(0 -.028)" style="fill:#272d3b"/>
</svg>
