<svg id="envelope" xmlns="http://www.w3.org/2000/svg" width="17.495" height="13.314">
    <defs>
        <style>
            .cls-1{fill:#303030}
        </style>
    </defs>
    <g id="그룹_23" data-name="그룹 23">
        <path id="패스_25" data-name="패스 25" class="cls-1" d="M15.359 57.75H2.139A2.141 2.141 0 0 0 0 59.889v9.035a2.141 2.141 0 0 0 2.139 2.139h13.216a2.141 2.141 0 0 0 2.139-2.139v-9.031a2.139 2.139 0 0 0-2.135-2.143zm1.162 11.174a1.163 1.163 0 0 1-1.162 1.162H2.139a1.163 1.163 0 0 1-1.162-1.162v-9.031a1.163 1.163 0 0 1 1.162-1.162h13.216a1.163 1.163 0 0 1 1.162 1.162v9.031z" transform="translate(0 -57.75)"/>
        <path id="패스_26" data-name="패스 26" class="cls-1" d="m64.767 113.6 4.279-3.837a.49.49 0 1 0-.655-.728l-5.9 5.3-1.152-1.035s-.007-.007-.007-.011a.722.722 0 0 0-.08-.069l-4.684-4.192a.49.49 0 0 0-.652.731l4.329 3.87-4.311 4.036a.491.491 0 0 0-.022.691.5.5 0 0 0 .358.156.49.49 0 0 0 .333-.13l4.376-4.094 1.187 1.061a.487.487 0 0 0 .652 0l1.22-1.093 4.351 4.134a.49.49 0 0 0 .691-.018.491.491 0 0 0-.018-.691z" transform="translate(-53.734 -107.051)"/>
    </g>
</svg>
