<svg xmlns="http://www.w3.org/2000/svg" width="17.077" height="17.991">
    <g data-name="Iconly/Bold/Home">
        <path data-name="Home" d="M5.265 14.9v-2.429a1.126 1.126 0 0 1 1.13-1.121h2.28a1.134 1.134 0 0 1 .8.328 1.117 1.117 0 0 1 .331.793V14.9a.963.963 0 0 0 .283.688.977.977 0 0 0 .691.286h1.556a2.746 2.746 0 0 0 1.939-.793 2.706 2.706 0 0 0 .8-1.923V6.243a1.962 1.962 0 0 0-.711-1.509L9.073.536A2.458 2.458 0 0 0 5.94.593L.767 4.733A1.963 1.963 0 0 0 0 6.243v6.905a2.733 2.733 0 0 0 2.743 2.722h1.52a.977.977 0 0 0 .981-.966z" transform="translate(1 1.12)" style="fill:none;stroke:#4b4b4b;stroke-width:2px"/>
    </g>
</svg>
