<svg xmlns="http://www.w3.org/2000/svg" width="18.475" height="18.576">
    <defs>
        <style>
            .cls-1{fill:#4b4b4b}
        </style>
    </defs>
    <g id="그룹_10665" data-name="그룹 10665" transform="translate(-116.021 -402.925)">
        <g id="그룹_9490" data-name="그룹 9490" transform="translate(116.021 402.925)">
            <path id="패스_3940" data-name="패스 3940" class="cls-1" d="M122.08 421.5a4.754 4.754 0 0 1-1.353-.181l-1.327-.419.842-1.111a4.712 4.712 0 0 0 .78-1.555 8.005 8.005 0 0 1-5-7.2c0-4.468 4.144-8.1 9.238-8.1s9.238 3.635 9.238 8.1c0 4.063-3.355 7.436-7.88 8.015a5.471 5.471 0 0 1-4.538 2.451zm3.179-16.6c-4.006 0-7.265 2.75-7.265 6.13a6.2 6.2 0 0 0 4.483 5.661l.753.265-.1.792a6.8 6.8 0 0 1-.455 1.731 3.748 3.748 0 0 0 2.541-1.886l.262-.422.5-.041c3.735-.308 6.552-2.93 6.552-6.1-.006-3.383-3.265-6.13-7.271-6.13z" transform="translate(-116.021 -402.925)"/>
            <g id="그룹_9489" data-name="그룹 9489" transform="translate(4.953 7.367)">
                <path id="패스_3941" data-name="패스 3941" class="cls-1" d="M131.737 424.419a.952.952 0 1 0-.952.952.953.953 0 0 0 .952-.952z" transform="translate(-129.833 -423.467)"/>
                <path id="패스_3942" data-name="패스 3942" class="cls-1" d="M141.028 424.419a.952.952 0 1 0-.952.952.953.953 0 0 0 .952-.952z" transform="translate(-135.792 -423.467)"/>
                <path id="패스_3943" data-name="패스 3943" class="cls-1" d="M150.32 424.419a.952.952 0 1 0-.952.952.953.953 0 0 0 .952-.952z" transform="translate(-141.752 -423.467)"/>
            </g>
        </g>
    </g>
</svg>
