<svg xmlns="http://www.w3.org/2000/svg" width="16.888" height="19.676">
    <defs>
        <style>
            .cls-1{fill:#3d50b0;stroke:#3d50b0}
        </style>
    </defs>
    <g id="avatar" transform="translate(.501 .5)">
        <g id="그룹_14" data-name="그룹 14">
            <path id="패스_2" data-name="패스 2" class="cls-1" d="M141.05 10.063h.124a3.569 3.569 0 0 0 2.727-1.18c1.489-1.679 1.241-4.556 1.214-4.831A3.946 3.946 0 0 0 143.24.545 4.3 4.3 0 0 0 141.159 0h-.066a4.307 4.307 0 0 0-2.081.53 3.948 3.948 0 0 0-1.9 3.523c-.027.275-.275 3.152 1.214 4.831a3.555 3.555 0 0 0 2.724 1.179zm-2.9-5.914v-.031c.128-2.773 2.1-3.071 2.939-3.071h.046c1.044.023 2.819.449 2.939 3.071a.076.076 0 0 0 0 .031c0 .027.275 2.657-.955 4.042a2.535 2.535 0 0 1-1.992.828h-.039a2.527 2.527 0 0 1-1.988-.828c-1.221-1.376-.958-4.018-.954-4.041z" transform="translate(-133.175)"/>
            <path id="패스_3" data-name="패스 3" class="cls-1" d="M51.958 264.054v-.112c-.023-.766-.073-2.556-1.752-3.129l-.039-.012a11.159 11.159 0 0 1-3.21-1.462.522.522 0 0 0-.6.855 12.045 12.045 0 0 0 3.531 1.613c.9.321 1 1.284 1.029 2.166a.777.777 0 0 0 0 .1 7.021 7.021 0 0 1-.081 1.2 14.234 14.234 0 0 1-6.819 1.586 14.315 14.315 0 0 1-6.822-1.59 6.646 6.646 0 0 1-.081-1.2v-.1c.027-.882.128-1.845 1.029-2.166a12.157 12.157 0 0 0 3.531-1.613.522.522 0 1 0-.6-.855 11.037 11.037 0 0 1-3.21 1.462l-.039.012c-1.679.576-1.729 2.367-1.752 3.129a.777.777 0 0 1 0 .1v.012a5.931 5.931 0 0 0 .2 1.752.5.5 0 0 0 .2.244 14.629 14.629 0 0 0 7.549 1.849 14.673 14.673 0 0 0 7.549-1.849.517.517 0 0 0 .2-.244 6.223 6.223 0 0 0 .187-1.748z" transform="translate(-36.073 -249.218)"/>
        </g>
    </g>
</svg>
