<svg data-name="💚 Icon - L" xmlns="http://www.w3.org/2000/svg" width="24" height="24" viewBox="0 0 24 24">
    <path d="M17 20H3a3 3 0 0 1-3-3V5a3 3 0 0 1 3-3h1V1a1 1 0 0 1 2 0v1h8V1a1 1 0 0 1 2 0v1h1a3 3 0 0 1 3 3v12a3 3 0 0 1-3 3zM2 8v9a1 1 0 0 0 1 1h14a1 1 0 0 0 1-1V8zm1-4a1 1 0 0 0-1 1v1h16V5a1 1 0 0 0-1-1zm12 12a1 1 0 1 1 1-1 1 1 0 0 1-1 1zm-5 0a1 1 0 1 1 1-1 1 1 0 0 1-1 1zm-5 0a1 1 0 1 1 1-1 1 1 0 0 1-1 1zm10-4a1 1 0 1 1 1-1 1 1 0 0 1-1 1zm-5 0a1 1 0 1 1 1-1 1 1 0 0 1-1 1zm-5 0a1 1 0 1 1 1-1 1 1 0 0 1-1 1z" transform="translate(2 2)" style="fill:#989898"/>
</svg>
