<svg xmlns="http://www.w3.org/2000/svg" width="17.5" height="17.5" viewBox="0 0 17.5 17.5">
  <g id="favorite_border_black_24dp" opacity="0.91">
    <path id="패스_6036" data-name="패스 6036" d="M0,0H17.5V17.5H0Z" fill="none"/>
    <path id="패스_6037" data-name="패스 6037" d="M12.573,3A4.366,4.366,0,0,0,9.292,4.524,4.367,4.367,0,0,0,6.01,3,3.971,3.971,0,0,0,2,7.01c0,2.756,2.479,5,6.234,8.415l1.057.955,1.057-.962c3.755-3.405,6.234-5.651,6.234-8.407A3.971,3.971,0,0,0,12.573,3ZM9.365,14.338l-.073.073-.073-.073C5.748,11.2,3.458,9.118,3.458,7.01A2.492,2.492,0,0,1,6.01,4.458a2.851,2.851,0,0,1,2.6,1.721H9.977a2.833,2.833,0,0,1,2.6-1.721A2.492,2.492,0,0,1,15.125,7.01C15.125,9.118,12.835,11.2,9.365,14.338Z" transform="translate(-0.542 -0.813)" fill="#fff"/>
  </g>
</svg>
