<svg xmlns="http://www.w3.org/2000/svg" width="12.619" height="12.982" viewBox="0 0 12.619 12.982">
    <path data-name="패스 37" d="M18.916 8.826a1.613 1.613 0 0 0 .377-1.078 1.656 1.656 0 0 0-.353-.934 1.451 1.451 0 0 0-.345-1.67 3 3 0 0 0-2.18-.521 8.519 8.519 0 0 0-1.336.171c-.136.024-.28.054-.426.087A4.736 4.736 0 0 1 14.99 3.3a2.9 2.9 0 0 0-.07-2.629A1.726 1.726 0 0 0 13.538 0a.682.682 0 0 0-.524.239 1.826 1.826 0 0 0-.228 1.295c-.358.961-1.363 3.317-2.213 3.972a.291.291 0 0 0-.043.038 2.916 2.916 0 0 0-.532.8 1.12 1.12 0 0 0-.538-.136H7.8a1.13 1.13 0 0 0-1.125 1.127v4.411a1.13 1.13 0 0 0 1.125 1.13h1.66a1.127 1.127 0 0 0 .652-.206l.638.076a27.333 27.333 0 0 0 3.619.2c.323.024.627.038.909.038a6.091 6.091 0 0 0 1.262-.114 2.361 2.361 0 0 0 1.686-1.048 1.662 1.662 0 0 0 .185-1.04 1.732 1.732 0 0 0 .616-1.409 1.834 1.834 0 0 0-.111-.547zM7.8 12.143a.4.4 0 0 1-.4-.4V7.332a.4.4 0 0 1 .4-.4h1.66a.4.4 0 0 1 .4.4v4.411a.4.4 0 0 1-.4.4H7.8zm10.421-3.635a.365.365 0 0 0-.049.442 1.129 1.129 0 0 1 .128.45 1.086 1.086 0 0 1-.51.939.37.37 0 0 0-.125.418.959.959 0 0 1-.073.7 1.7 1.7 0 0 1-1.2.69 7.152 7.152 0 0 1-1.979.06h-.038a26.8 26.8 0 0 1-3.529-.193l-.274-.033a1.15 1.15 0 0 0 .024-.239v-4.41A1.148 1.148 0 0 0 10.538 7a2.269 2.269 0 0 1 .5-.931c1.224-.969 2.416-4.231 2.467-4.369a.344.344 0 0 0 .016-.182 1.7 1.7 0 0 1 .035-.787.974.974 0 0 1 .766.366 2.312 2.312 0 0 1-.033 1.974c-.456 1.382-.494 2.109-.133 2.43a.592.592 0 0 0 .592.106c.166-.038.323-.071.472-.1l.035-.008c.833-.182 2.327-.293 2.845.179a.781.781 0 0 1 .092.991.363.363 0 0 0 .065.472 1.028 1.028 0 0 1 .3.633 1.008 1.008 0 0 1-.336.734z" transform="translate(-6.675)" style="fill:#272d3b"/>
</svg>
