<svg xmlns="http://www.w3.org/2000/svg" width="19.426" height="15.494" viewBox="0 0 19.426 15.494">
    <g data-name="그룹 10669">
        <path data-name="패스 4046" d="M509.48 1164.067a3.24 3.24 0 0 0-.254 2.809 1.735 1.735 0 0 0-.677 2.1 1.736 1.736 0 0 1-1.734 1.734h-7a2.891 2.891 0 0 1-2.475-1.39h-1.226a.964.964 0 0 1-.945.782h-2.46a.964.964 0 0 1-.963-.963v-6.922a.964.964 0 0 1 .963-.963h2.46a.964.964 0 0 1 .945.782h1.17a4.187 4.187 0 0 1 2.968-2.148c.445-.041 1.8-.164 2.335-2.315a1.746 1.746 0 0 1 1.685-1.359 1.666 1.666 0 0 1 1.347.622 3.2 3.2 0 0 1 .373 2.666 5.8 5.8 0 0 1-.5 1.447h2.941a1.733 1.733 0 0 1 1.041 3.12zm-15.6-1.678a.769.769 0 1 0 .769.769.769.769 0 0 0-.765-.769zm14.556-.206h-4.2a.618.618 0 0 1-.435-1.057l.028-.028a3.065 3.065 0 0 0 .953-1.864 2.178 2.178 0 0 0-.129-1.626.439.439 0 0 0-.383-.16.51.51 0 0 0-.483.411 3.868 3.868 0 0 1-3.425 3.257 2.986 2.986 0 0 0-2.109 1.755.617.617 0 0 1-.577.4h-1.546v4.811h1.584a.619.619 0 0 1 .569.377 1.657 1.657 0 0 0 1.529 1.014h7a.5.5 0 0 0 .238-.936.618.618 0 0 1 .3-1.161h.143a.5.5 0 0 0 .232-.938.618.618 0 0 1 .226-1.161.5.5 0 0 0 .186-.934.616.616 0 0 1-.3-.7.624.624 0 0 1 .6-.466.5.5 0 0 0 0-1z" transform="translate(-491.248 -1155.713)" style="fill:#3d50b0;stroke:#707070"/>
    </g>
</svg>
