<svg xmlns="http://www.w3.org/2000/svg" width="143.727" height="31">
    <defs>
        <style>
            .cls-1{fill:#121a50}
        </style>
    </defs>
    <g id="그룹_10620" data-name="그룹 10620" transform="translate(-175.37 -536.26)">
        <g id="그룹_10599" data-name="그룹 10599" transform="translate(213.388 537.317)">
            <g id="그룹_10589" data-name="그룹 10589">
                <g id="그룹_10582" data-name="그룹 10582">
                    <g id="그룹_10581" data-name="그룹 10581">
                        <path id="패스_5966" data-name="패스 5966" class="cls-1" d="M251.465 551.456h-11.444v-2.145h2.315c.022-1.106 0-2.587-.044-3.314a5.223 5.223 0 0 0-.635-2.185l2-.83a5.894 5.894 0 0 1 .934 2.8c.088.894.064 2.418.042 3.524h2.08v-6.434h-6.452v-2.144h10.786v2.144h-2.062v6.434h2.484zm4.268 5.921h-2.273v-19.32h2.273z" transform="translate(-240.021 -538.057)"/>
                    </g>
                </g>
                <g id="그룹_10584" data-name="그룹 10584" transform="translate(29.032 2.188)">
                    <g id="그룹_10583" data-name="그룹 10583">
                        <path id="패스_5967" data-name="패스 5967" class="cls-1" d="M307.756 556.533h-18.365v-2.143h18.365zm-4.18-4.414H293.15v-10.341h10.276v2.122H295.4v1.889h7.88v2.145h-7.88v2.016h8.177z" transform="translate(-289.391 -541.778)"/>
                    </g>
                </g>
                <g id="그룹_10586" data-name="그룹 10586" transform="translate(57.763)">
                    <g id="그룹_10585" data-name="그룹 10585">
                        <path id="패스_5968" data-name="패스 5968" class="cls-1" d="m349.547 547.931-1.594 1.591-3.928-3.841a9.935 9.935 0 0 1-4.267 3.95l-1.508-1.7a7.384 7.384 0 0 0 4.63-6.814v-1.973h2.334v1.973a9.737 9.737 0 0 1-.275 2.313zm5.668 9.977H344.64v-6.9h2.293v4.737h8.282zm-.236-6.094h-2.272v-7.364h-4.457v-2.1h4.457v-4.29h2.272z" transform="translate(-338.25 -538.057)"/>
                    </g>
                </g>
                <g id="그룹_10588" data-name="그룹 10588" transform="translate(89.491)">
                    <g id="그룹_10587" data-name="그룹 10587">
                        <path id="패스_5969" data-name="패스 5969" class="cls-1" d="M400.08 551.6h-7.88v-11h2.269v3.975h3.335V540.6h2.27zm-2.27-2.146v-2.778h-3.335v2.778zm10.614 7.918h-2.249V546.89h-1.955v9.171h-2.228v-17.577h2.228v6.263h1.955v-6.69h2.249z" transform="translate(-392.205 -538.057)"/>
                    </g>
                </g>
            </g>
            <g id="그룹_10592" data-name="그룹 10592" transform="translate(21.946 .53)">
                <g id="그룹_10591" data-name="그룹 10591">
                    <g id="그룹_10590" data-name="그룹 10590">
                        <path id="사각형_17533" data-name="사각형 17533" class="cls-1" d="M0 0h2.189v18.226H0z"/>
                    </g>
                </g>
            </g>
            <g id="그룹_10595" data-name="그룹 10595" transform="translate(51.084 .53)">
                <g id="그룹_10594" data-name="그룹 10594">
                    <g id="그룹_10593" data-name="그룹 10593">
                        <path id="사각형_17534" data-name="사각형 17534" class="cls-1" d="M0 0h2.189v18.226H0z"/>
                    </g>
                </g>
            </g>
            <g id="그룹_10598" data-name="그룹 10598" transform="translate(80.226 .53)">
                <g id="그룹_10597" data-name="그룹 10597">
                    <g id="그룹_10596" data-name="그룹 10596">
                        <path id="사각형_17535" data-name="사각형 17535" class="cls-1" d="M0 0h2.191v18.226H0z"/>
                    </g>
                </g>
            </g>
        </g>
        <g id="그룹_10612" data-name="그룹 10612" transform="translate(248.596 560.792)">
            <g id="그룹_10600" data-name="그룹 10600" transform="translate(0 .565)">
                <path id="패스_5970" data-name="패스 5970" class="cls-1" d="M302.928 580.306c0 1.1-.925 1.449-1.755 1.449h-.435v-.476h.429c.586 0 1.191-.218 1.191-.973 0-.673-.64-.919-1.224-.919h-.7v4.374h-.538v-4.822h1.245c.859 0 1.787.299 1.787 1.367z" transform="translate(-299.894 -578.939)"/>
            </g>
            <g id="그룹_10601" data-name="그룹 10601" transform="translate(3.804 .558)">
                <path id="패스_5971" data-name="패스 5971" class="cls-1" d="M309.036 583.756h-2.673v-4.829h2.612v.455h-2.068V581h1.979v.456h-1.979v1.85h2.128z" transform="translate(-306.363 -578.927)"/>
            </g>
            <g id="그룹_10602" data-name="그룹 10602" transform="translate(7.377 .558)">
                <path id="패스_5972" data-name="패스 5972" class="cls-1" d="M315.112 583.756h-2.673v-4.829h2.612v.455h-2.068V581h1.979v.456h-1.979v1.85h2.128z" transform="translate(-312.439 -578.927)"/>
            </g>
            <g id="그룹_10603" data-name="그룹 10603" transform="translate(10.364 .585)">
                <path id="패스_5973" data-name="패스 5973" class="cls-1" d="M320.934 579.429H319.5v4.38h-.545v-4.38h-1.436v-.456h3.415z" transform="translate(-317.519 -578.973)"/>
            </g>
            <g id="그룹_10604" data-name="그룹 10604" transform="translate(16.334 .013)">
                <path id="패스_5974" data-name="패스 5974" class="cls-1" d="M330.608 579.763a1.442 1.442 0 0 1-1.49 1.381 1.385 1.385 0 1 1 1.49-1.381zm-.517 0a.95.95 0 0 0-.973-.925.923.923 0 1 0 .973.925zm2.135 4.693h-.5v-1.788h-2.687v-.468h3.19zm1.184-3.679h-1.129v1.088h-.5V578h.5v1.007h1.129v.47h-1.129v.829h1.129z" transform="translate(-327.67 -578.001)"/>
            </g>
            <g id="그룹_10605" data-name="그룹 10605" transform="translate(22.811 .007)">
                <path id="패스_5975" data-name="패스 5975" class="cls-1" d="M341.3 582.173h-2.612v-3.292H341v.469h-1.8v2.35h2.1zm2.415 1.945h-.51v-3.455h-.973v3.027h-.5v-5.558h.5v2.061h.973v-2.2h.51z" transform="translate(-338.685 -577.99)"/>
            </g>
            <g id="그룹_10606" data-name="그룹 10606" transform="translate(30.753 .013)">
                <path id="패스_5976" data-name="패스 5976" class="cls-1" d="M355.13 579.7a1.442 1.442 0 0 1-1.49 1.38 1.385 1.385 0 1 1 1.49-1.38zm-.517 0a.949.949 0 0 0-.973-.925.923.923 0 1 0 .973.925zm2.271 4.672h-3.1v-2.53h.531v.844h2.053v-.844h.517zm-.517-.462v-.762h-2.053v.762zm.667-2.388h-.51V578h.51z" transform="translate(-352.191 -578.001)"/>
            </g>
            <g id="그룹_10607" data-name="그룹 10607" transform="translate(36.368 .013)">
                <path id="패스_5977" data-name="패스 5977" class="cls-1" d="m365.215 581.851-.347.353-1.408-1.394a3.413 3.413 0 0 1-1.394 1.435l-.326-.381a2.7 2.7 0 0 0 1.5-2.319v-.911h.543v.769a3.245 3.245 0 0 1-.129.918zm1.571 2.279h-.5V578h.5z" transform="translate(-361.74 -578.001)"/>
            </g>
            <g id="그룹_10608" data-name="그룹 10608" transform="translate(44.48 .007)">
                <path id="패스_5978" data-name="패스 5978" class="cls-1" d="m378.908 581.248-.353.34-1.2-1.068a4.224 4.224 0 0 1-1.482 1.088l-.333-.394a3.724 3.724 0 0 0 2.115-2.231h-1.741v-.463h2.386a3.391 3.391 0 0 1-.64 1.612zm1.639 3.054H377.3v-2.109h.517v1.632h2.728zm-.075-1.939h-.51v-2.176h-1.354v-.469h1.354v-1.728h.51z" transform="translate(-375.535 -577.99)"/>
            </g>
            <g id="그룹_10609" data-name="그룹 10609" transform="translate(50.339 .266)">
                <path id="패스_5979" data-name="패스 5979" class="cls-1" d="M391.252 581.8h-2.489v1.313h-.51V581.8H385.5v-.448h5.754zm-1.353-1.183h-3.088v-2.187h3.089zm.211 3.842h-3.278v-1.949h.5v1.483h2.775zm-.715-4.312V578.9h-2.074v1.245z" transform="translate(-385.498 -578.43)"/>
            </g>
            <g id="그룹_10610" data-name="그룹 10610" transform="translate(58.649)">
                <path id="패스_5980" data-name="패스 5980" class="cls-1" d="M403.139 579.672h-1.422a1.027 1.027 0 0 0-.932.388.777.777 0 0 0 .135 1.02.848.848 0 0 0 1.075-.061.592.592 0 0 0-.075-.891l.366-.3a1 1 0 0 1 .158 1.422 1.419 1.419 0 0 1-1.8.231 1.154 1.154 0 0 1-.333-1.571.869.869 0 0 1 .252-.238h-.939v-.449h3.51zm-.763-.911a9.563 9.563 0 0 1-1.313.007 1.588 1.588 0 0 1-.782-.238l.158-.387a2.207 2.207 0 0 0 .673.163 8.68 8.68 0 0 0 1.265-.007zm1.973 5.665h-.51v-1.68h-2.667v-.469h3.177zm1.183-4.278h-1.1v1.829h-.51v-4h.51v1.7h1.1z" transform="translate(-399.629 -577.978)"/>
            </g>
            <g id="그룹_10611" data-name="그룹 10611" transform="translate(64.834 .013)">
                <path id="패스_5981" data-name="패스 5981" class="cls-1" d="M414.208 581.157a13.61 13.61 0 0 1-2.006.191v.986h-.5v-.98h-1.558v-.442h1.476a11.993 11.993 0 0 0 2.584-.218zm-.769-1.741c0 .749-.673 1.143-1.469 1.143s-1.429-.395-1.429-1.143.633-1.15 1.429-1.15c.818 0 1.47.368 1.47 1.15zm-.524 0c0-.469-.428-.7-.945-.7s-.911.218-.911.694.408.714.911.714.946-.211.946-.708zm2.375 4.9h-3.252V582.6h.51v1.238h2.742zm-.061-1.625h-.5v-.64H413.3v-.442h1.427V578h.5z" transform="translate(-410.148 -578.001)"/>
            </g>
        </g>
        <g id="그룹_10619" data-name="그룹 10619" transform="translate(175.37 536.26)">
            <g id="그룹_10613" data-name="그룹 10613">
                <path id="패스_5982" data-name="패스 5982" class="cls-1" d="M209 547.546a3.354 3.354 0 0 0 .7-1.594 1.111 1.111 0 0 0-1.091.4 4.149 4.149 0 0 0-.5.781 17.133 17.133 0 0 0 .436-1.922 1.479 1.479 0 0 0 .948-.654 4.159 4.159 0 0 0 .418-1.62c.018.006-.429-.081-.87.574a4.658 4.658 0 0 0-.363.874c.1-.676.155-1.344.187-2.007a1.6 1.6 0 0 0-.249.724 18.608 18.608 0 0 1-.241 1.741 4.6 4.6 0 0 0-.139-1.2 2.336 2.336 0 0 0-1.188-1.321 4.144 4.144 0 0 0 .235 2.071 2.767 2.767 0 0 0 .969 1.124 15.9 15.9 0 0 1-.576 2.089 4.679 4.679 0 0 0 .03-1.283 2.651 2.651 0 0 0-1.059-1.577 4.163 4.163 0 0 0-.082 2.157 2.958 2.958 0 0 0 .869 1.347 14.156 14.156 0 0 1-.921 1.868 4.093 4.093 0 0 0 .215-1.191 2.88 2.88 0 0 0-.871-1.825l-.025.051V538.3a.343.343 0 0 0-.3-.34c-.032 0-.45-.055-1.127-.1v-1.066a.344.344 0 0 0-.306-.341 31.25 31.25 0 0 0-3.321-.19c-5.258 0-7.519 1.607-8.214 2.253-2.188-1.793-5.635-2.178-8.19-2.178a23.957 23.957 0 0 0-3.193.2.342.342 0 0 0-.292.337v1.066c-.677.051-1.1.1-1.128.1a.339.339 0 0 0-.3.34v8.777l-.027-.051a2.872 2.872 0 0 0-.87 1.825 4.185 4.185 0 0 0 .212 1.187 14.058 14.058 0 0 1-.917-1.865 2.986 2.986 0 0 0 .867-1.346 4.158 4.158 0 0 0-.081-2.157 2.651 2.651 0 0 0-1.059 1.577 4.758 4.758 0 0 0 .031 1.281 15.975 15.975 0 0 1-.576-2.089 2.729 2.729 0 0 0 .959-1.12 4.129 4.129 0 0 0 .235-2.071 2.352 2.352 0 0 0-1.19 1.321 4.813 4.813 0 0 0-.137 1.194c-.112-.6-.192-1.2-.243-1.8a1.338 1.338 0 0 0-.243-.66c.031.664.091 1.333.189 2.009a4.654 4.654 0 0 0-.364-.876c-.441-.655-.887-.568-.869-.574a4.109 4.109 0 0 0 .418 1.62 1.469 1.469 0 0 0 .949.654 16.6 16.6 0 0 0 .435 1.924 4.143 4.143 0 0 0-.5-.783 1.115 1.115 0 0 0-1.093-.4 3.354 3.354 0 0 0 .7 1.594 1.707 1.707 0 0 0 1.178.458 14.383 14.383 0 0 0 .824 1.882 4.311 4.311 0 0 0-.729-.725 1.436 1.436 0 0 0-1.381-.125 2.947 2.947 0 0 0 1.109 1.464 2.172 2.172 0 0 0 1.446.171 12.309 12.309 0 0 0 .732 1.056v.3a2.4 2.4 0 0 0-.445-.228 1.849 1.849 0 0 0-1.613.242 2.994 2.994 0 0 0 1.567 1.176 3.186 3.186 0 0 0 .491.046v.172a.34.34 0 0 0 .384.343c.009 0 .543-.066 1.387-.119.3.271.611.527.931.764a4.426 4.426 0 0 0-1.1-.363 2.159 2.159 0 0 0-1.674.618 3.416 3.416 0 0 0 1.931.755 3.033 3.033 0 0 0 1.605-.489 13.913 13.913 0 0 0 1.711.942 4.229 4.229 0 0 0-1.05-.114 2.158 2.158 0 0 0-1.547.883 4.3 4.3 0 0 0 2.107.317 3.029 3.029 0 0 0 1.453-.683 14.731 14.731 0 0 0 1.811.562 4.442 4.442 0 0 0-1.026.051 1.921 1.921 0 0 0-1.3.98 5.271 5.271 0 0 0 2.106-.018 2.65 2.65 0 0 0 1.293-.8c1.383.195 2.539.425 3.451.641a12.369 12.369 0 0 0-2.147.714c.2.064.4.125.594.18a15.767 15.767 0 0 1 2.27-.718 15.831 15.831 0 0 1 2.272.718c.2-.055.392-.116.593-.18a12.264 12.264 0 0 0-2.145-.714 37.96 37.96 0 0 1 3.449-.641 2.65 2.65 0 0 0 1.293.8 5.276 5.276 0 0 0 2.107.018 1.927 1.927 0 0 0-1.306-.98 4.433 4.433 0 0 0-1.026-.051 15.343 15.343 0 0 0 1.812-.558 3.068 3.068 0 0 0 1.455.68 4.2 4.2 0 0 0 2.106-.317 2.162 2.162 0 0 0-1.547-.883 4.224 4.224 0 0 0-1.05.114 13.908 13.908 0 0 0 1.711-.942 3.041 3.041 0 0 0 1.605.489 3.427 3.427 0 0 0 1.931-.755 2.16 2.16 0 0 0-1.675-.618 4.427 4.427 0 0 0-1.1.363c.348-.259.68-.543 1.007-.841.8.053 1.3.114 1.311.116a.349.349 0 0 0 .385-.346v-.088a3.179 3.179 0 0 0 .49-.046 2.99 2.99 0 0 0 1.565-1.176 1.845 1.845 0 0 0-1.612-.242 2.293 2.293 0 0 0-.443.226v-.3c.258-.341.507-.69.733-1.058A2.164 2.164 0 0 0 208 550.5a2.94 2.94 0 0 0 1.109-1.464 1.435 1.435 0 0 0-1.381.125 4.208 4.208 0 0 0-.726.723 14.151 14.151 0 0 0 .822-1.881 1.706 1.706 0 0 0 1.176-.457zm-29.548 3.606c-.082-.112-.17-.222-.245-.335a2.53 2.53 0 0 0 .245-.348zm2.111-12.57v-1.407a25.531 25.531 0 0 1 2.8-.155c2.534 0 5.976.384 7.981 2.218a.335.335 0 0 0 .26.089.347.347 0 0 0 .241-.131c.016-.025 1.812-2.251 7.923-2.251.926 0 1.914.053 2.943.156v14.352a27.15 27.15 0 0 0-2.687-.131c-2.7 0-6.3.4-8.44 2.255-.709-.627-2.98-2.187-8.03-2.187a27.906 27.906 0 0 0-2.991.168zm.192 15.046c.128-.007.259-.013.4-.018a4.312 4.312 0 0 0 .513.719 12.511 12.511 0 0 1-.914-.701zm1.721 1.228a2.962 2.962 0 0 0 .133-1.268c.17 0 .338 0 .511.008a2.265 2.265 0 0 0 .313 1.359 3.564 3.564 0 0 0 .875.835 14.431 14.431 0 0 1-1.832-.934zm15.889-.368a2.956 2.956 0 0 0-.241 1.624 14.39 14.39 0 0 1-1.874.521 3.7 3.7 0 0 0 .965-.615 2.628 2.628 0 0 0 .588-2.012 4.51 4.51 0 0 0-1.963 1.332 2.962 2.962 0 0 0-.537 1.451 39.539 39.539 0 0 0-3.669.728 38.005 38.005 0 0 0-3.669-.728 2.955 2.955 0 0 0-.539-1.451 4.524 4.524 0 0 0-1.962-1.338 2.654 2.654 0 0 0 .592 2.015 3.707 3.707 0 0 0 .964.615 14.36 14.36 0 0 1-1.871-.521 2.991 2.991 0 0 0-.241-1.624 2.7 2.7 0 0 0-.6-.843c2.557.161 5.374.7 7.01 2.152a.342.342 0 0 0 .227.086.358.358 0 0 0 .141-.029l.182-.082a.284.284 0 0 0 .088-.056c1.654-1.469 4.519-2 7.1-2.157a2.8 2.8 0 0 0-.691.932zm.6 1.3a3.64 3.64 0 0 0 .877-.835 2.31 2.31 0 0 0 .308-1.44c.177 0 .349-.006.519-.008a2.973 2.973 0 0 0 .131 1.35 14.485 14.485 0 0 1-1.839.935zm2.644-1.458a3.843 3.843 0 0 0 .55-.8c.156 0 .307.011.452.018q-.494.421-1.011.784zm2.531-1.357a34.194 34.194 0 0 0-3.274-.155c-3.008 0-7.041.405-9.276 2.307-2.252-1.833-6.213-2.223-9.178-2.223-1.482 0-2.687.1-3.274.152v-14.365c.179-.018.433-.042.744-.066v13.314a.345.345 0 0 0 .114.255.338.338 0 0 0 .268.086 28.475 28.475 0 0 1 3.294-.206c5.809 0 7.729 2.162 7.76 2.195a.338.338 0 0 0 .243.122.051.051 0 0 0 .018 0 .336.336 0 0 0 .238-.1c1.938-1.891 5.534-2.287 8.211-2.287a25.412 25.412 0 0 1 2.981.167.337.337 0 0 0 .271-.079.344.344 0 0 0 .119-.258v-13.289c.31.022.565.046.742.063zm.684-1.814v-.692a2.575 2.575 0 0 0 .246.348c-.083.119-.17.233-.25.346z" transform="translate(-175.37 -536.26)"/>
            </g>
            <g id="그룹_10614" data-name="그룹 10614" transform="translate(10.911 6.503)">
                <path id="패스_5983" data-name="패스 5983" class="cls-1" d="M194.373 549.454a1.154 1.154 0 0 0 .753.278 1.207 1.207 0 0 0 0-2.413 1.21 1.21 0 0 0-1.2 1.207v2.269h.449zm.221-1.465a.726.726 0 0 1 .533-.22.756.756 0 1 1 0 1.511.751.751 0 0 1-.753-.754.743.743 0 0 1 .22-.537z" transform="translate(-193.924 -547.318)"/>
            </g>
            <g id="그룹_10615" data-name="그룹 10615" transform="translate(14.665 6.475)">
                <path id="패스_5984" data-name="패스 5984" class="cls-1" d="M201.516 549.68a1.378 1.378 0 0 0 .613-.146 1.128 1.128 0 0 0 .469-.385l-.371-.252a.712.712 0 0 1-.31.242.929.929 0 0 1-.4.091.729.729 0 0 1-.451-.147.792.792 0 0 1-.27-.38l1.9-.006a1.189 1.189 0 0 0 .021-.221 1.2 1.2 0 1 0-1.2 1.2zm-.451-1.812a.756.756 0 0 1 .9 0 .786.786 0 0 1 .27.385h-1.439a.8.8 0 0 1 .269-.386z" transform="translate(-200.309 -547.271)"/>
            </g>
            <g id="그룹_10616" data-name="그룹 10616" transform="translate(18.419 6.475)">
                <path id="패스_5985" data-name="패스 5985" class="cls-1" d="M207.9 549.68a1.4 1.4 0 0 0 .616-.146 1.128 1.128 0 0 0 .465-.385l-.371-.252a.69.69 0 0 1-.308.242.934.934 0 0 1-.4.091.73.73 0 0 1-.452-.147.778.778 0 0 1-.269-.38l1.9-.006a1.3 1.3 0 0 0 .019-.221 1.2 1.2 0 1 0-1.2 1.2zm-.452-1.812a.759.759 0 0 1 .9 0 .778.778 0 0 1 .268.385h-1.436a.787.787 0 0 1 .269-.386z" transform="translate(-206.693 -547.271)"/>
            </g>
            <g id="그룹_10617" data-name="그룹 10617" transform="translate(22.174 5.65)">
                <path id="패스_5986" data-name="패스 5986" class="cls-1" d="M213.29 548.895a.7.7 0 0 0 .507.207h.726v-.45h-.723a.26.26 0 0 1-.191-.076.255.255 0 0 1-.079-.187v-1.247h.8v-.448h-.8v-.825h-.449v2.52a.7.7 0 0 0 .209.506z" transform="translate(-213.078 -545.868)"/>
            </g>
            <g id="그룹_10618" data-name="그룹 10618" transform="translate(13.594 10.582)">
                <path id="패스_5987" data-name="패스 5987" class="cls-1" d="M201.955 556.576H202.16c2.057 0 3.671-.872 3.671-1.982a.342.342 0 1 0-.684 0c0 .614-1.227 1.3-2.987 1.3h-.205c-1.648-.053-2.779-.706-2.779-1.295a.342.342 0 1 0-.684 0c-.004 1.074 1.508 1.921 3.463 1.977z" transform="translate(-198.488 -554.256)"/>
            </g>
        </g>
    </g>
</svg>
