<svg xmlns="http://www.w3.org/2000/svg" viewBox="0 0 30.36 39.93"><defs><style>.cls-1{fill:#251619;}</style></defs><g id="레이어_2" data-name="레이어 2"><g id="레이어_1-2" data-name="레이어 1"><polygon class="cls-1" points="30.36 12.7 30.36 8.82 15.88 0 0.41 8.8 30.29 28.5 30.36 28.38 30.36 24.58 12.97 13.11 15.65 11.54 30.36 20.75 30.36 16.84 15.71 7.66 9.89 11.08 6.75 9.01 15.82 3.84 30.36 12.7"/><polygon class="cls-1" points="0 11.56 0 15.36 17.39 26.82 14.71 28.4 0 19.19 0 23.1 14.65 32.28 20.47 28.85 23.61 30.93 14.54 36.09 0 27.24 0 31.12 14.49 39.93 29.95 31.13 0.08 11.44 0 11.56"/></g></g></svg>